<?xml version="1.0" encoding="UTF-8" standalone="no"?>
<!-- Created with Inkscape (http://www.inkscape.org/) -->
<svg xmlns:dc="http://purl.org/dc/elements/1.1/" xmlns:cc="http://creativecommons.org/ns#" xmlns:rdf="http://www.w3.org/1999/02/22-rdf-syntax-ns#" xmlns:svg="http://www.w3.org/2000/svg" xmlns="http://www.w3.org/2000/svg" xmlns:sodipodi="http://sodipodi.sourceforge.net/DTD/sodipodi-0.dtd" xmlns:inkscape="http://www.inkscape.org/namespaces/inkscape" width="254mm" height="134.44931mm" viewBox="0 0 899.99999 476.39519" id="svg2" version="1.1" inkscape:version="0.91 r13725" sodipodi:docname="Othem.svg">
  <defs id="defs4"/>
  <sodipodi:namedview id="base" pagecolor="#ffffff" bordercolor="#666666" borderopacity="1.0" inkscape:pageopacity="0.0" inkscape:pageshadow="2" inkscape:zoom="0.24748737" inkscape:cx="141.24309" inkscape:cy="341.43065" inkscape:document-units="px" inkscape:current-layer="layer1" showgrid="false" inkscape:window-width="1920" inkscape:window-height="1021" inkscape:window-x="1272" inkscape:window-y="-8" inkscape:window-maximized="1" inkscape:snap-global="false" fit-margin-top="0" fit-margin-left="0" fit-margin-right="0" fit-margin-bottom="0"/>
  <metadata id="metadata7">
    <rdf:RDF>
      <cc:Work rdf:about="">
        <dc:format>image/svg+xml</dc:format>
        <dc:type rdf:resource="http://purl.org/dc/dcmitype/StillImage"/>
        <dc:title/>
      </cc:Work>
    </rdf:RDF>
  </metadata>
  <g inkscape:label="Layer 1" inkscape:groupmode="layer" id="layer1" transform="translate(-1670.8366,-1029.9217)">
    <path style="opacity:1;fill:#ed4e00;fill-opacity:1;fill-rule:nonzero;stroke:none;stroke-width:1;stroke-linecap:round;stroke-linejoin:round;stroke-miterlimit:4;stroke-dasharray:none;stroke-dashoffset:0;stroke-opacity:1" d="m 2556.9548,1395.9575 c -57.6617,-35.3272 -143.8264,-63.5288 -230.4358,-91.6191 36.4463,26.3335 28.4574,53.4444 42.3391,47.8918 -22.0514,6.5892 -38.5748,28.609 -44.4214,47.1977 -9.1619,29.1292 -13.3168,38.3298 -32.622,59.6912 -14.2375,15.7542 -12.8293,26.6189 -16.6581,47.1978 -1.3889,-23.8219 -31.3399,-56.5945 -26.766,-72.7783 1.2792,-4.5258 3.108,-8.2917 -2.3855,-12.5941 -11.7508,5.6667 -23.6728,1.6784 -36.0923,0 -6.6054,13.6793 -27.6271,8.8772 -47.1977,31.928 3.1397,-10.0411 3.5431,-18.9179 -1.3882,-27.7635 -5.9083,-10.5984 -17.8506,-16.6854 -28.4574,-24.293 -8.7693,-6.2895 -16.1197,-12.0502 -27.0694,-7.6348 -12.9533,5.2233 -21.0327,3.3791 -29.1515,3.4703 9.0402,-4.6248 19.8036,-8.854 22.2107,-14.5757 3.2841,-7.8059 6.7668,-12.9871 11.1053,-15.964 4.3758,-3.0022 4.4304,-7.1159 4.1647,-11.7994 -0.558,-9.8296 4.0226,-15.2354 13.8816,-16.658 15.5921,-2.2497 23.0446,-12.9166 31.2338,-22.2107 6.0919,-6.9138 7.1273,-8.5155 9.023,-10.4112 4.9044,-4.9043 1.7767,-11.819 -3.4704,-17.3521 -11.5839,-12.2158 -26.9709,-26.3973 -43.7273,-34.7042 -11.9596,-5.929 -16.4173,-9.7146 -22.2107,-13.8817 l 18.0462,-4.8586 c 0.04,-5.2207 0.9289,-10.2719 5.5527,-14.5757 -4.8793,-5.0693 -3.1629,-15.5739 -6.2467,-23.599 -4.8499,-12.6203 -4.9322,-14.7773 -6.2469,-20.8225 -2.2359,-9.1783 -7.6017,-12.0971 -12.4934,-15.9639 7.272,1.8417 12.188,5.7126 22.9047,4.1645 11.1156,-1.6057 23.9234,-6.7885 32.622,0.6941 8.9399,-3.0819 16.4445,-5.4459 18.0462,-4.8586 1.4655,-7.7893 -1.8368,-11.7645 -4.8586,-15.964 20.1471,8.4076 26.1976,14.9001 41.645,26.3753 18.1483,13.4816 24.7491,-5.4763 46.5037,15.964 -12.4355,-14.3841 -11.5631,-19.2031 -9.7172,-36.7866 1.2967,-12.3511 -0.9396,-27.9628 -5.5527,-32.6219 18.0414,-11.6038 28.7944,-28.9881 20.1285,-61.7735 23.89,16.7695 26.314,26.9923 36.0923,43.7273 3.1329,5.3618 19.8256,3.4411 26.9017,-3.5022 6.128,-6.0132 12.8508,0.3775 15.4375,-13.1558 0.9192,6.5631 -0.4767,10.6585 4.8586,22.2106 4.0228,8.7106 3.9759,15.4861 1.3881,24.293 -1.628,5.5407 -3.0636,11.4622 3.4705,15.2698 6.9365,4.0423 13.6413,5.1566 18.7402,11.1054 3.3547,-5.3056 6.6796,-8.6873 10.0643,-7.635 9.8874,3.0741 26.2897,-8.212 34.3572,-11.7993 17.7416,-7.8895 20.9623,-17.3273 27.7633,-24.9871 -1.5822,7.8663 -3.4497,15.7326 -4.1645,23.5988 -2.4635,27.1086 -0.8099,53.9155 -8.3291,79.8197 -6.0309,20.7774 -13.427,23.6827 -29.1515,36.7865 6.5979,14.8796 18.0481,25.2864 29.1515,36.7865 -32.8149,14.5491 -58.0722,17.0342 -87.4546,13.8817 84.8722,26.5544 164.2592,56.7656 232.5183,94.3954 z" id="path4179" inkscape:connector-curvature="0" sodipodi:nodetypes="cccsscscccssscsssssssscccsccscccscsccsscssscsscssccccc"/>
    <path style="opacity:1;fill:#fbb600;fill-opacity:1;fill-rule:nonzero;stroke:none;stroke-width:1;stroke-linecap:round;stroke-linejoin:round;stroke-miterlimit:4;stroke-dasharray:none;stroke-dashoffset:0;stroke-opacity:1" d="m 1743.8354,1029.9217 8.9438,3.0163 0.5775,15.4271 41.8656,76.7935 20.94,48.7237 43.4914,60.5462 -10.9118,-25.7469 c 1.7813,-32.121 19.796,-51.2739 36.1572,-71.7476 l 14.5581,17.3065 72.1404,-32.165 c 1.9769,27.6611 34.9715,24.9184 67.8968,22.2436 l -47.8185,54.691 c -12.2398,9.7839 -6.4366,17.5502 8.4549,24.3003 l 66.3162,13.2402 c -17.35,11.2661 -12.5648,25.7863 -0.5378,41.3712 -6.3417,13.7101 17.9856,28.0702 32.8367,42.2296 -16.3311,-0.8272 -36.5279,-5.7638 -43.1945,3.6824 -15.3675,-2.0312 -29.0416,-1.843 -28.5133,16.9588 -18.3452,-13.355 -38.1402,-15.9243 -58.1328,-17.024 l -24.9412,-7.5389 c 4.5706,21.9383 24.8789,23.771 35.6248,67.1635 5.4895,2.9121 10.9761,5.7972 17.4548,17.5563 -28.7362,-7.6463 -19.0911,15.3686 -17.6721,31.8119 -9.1555,11.0923 -20.5155,20.4236 -10.231,47.0455 -15.9719,-18.5495 -26.9075,-21.3091 -35.8422,-17.7954 -26.4782,-27.233 -37.5516,-19.4297 -43.638,-0.2842 -7.2692,-27.9728 -13.8282,-35.4188 -20.433,-44.1903 -5.7147,-14.9777 -13.8815,-32.404 -13.1894,-40.9838 -16.0339,-22.8388 -21.7075,-9.6098 -25.1241,1.088 l -23.0782,45.0393 c -27.6004,0.3192 -50.3723,28.7481 -73.7627,53.5758 5.725,-26.6002 7.2519,-47.557 -5.5129,-49.3012 7.9183,-27.4716 -0.9355,-45.021 -21.7004,-55.524 13.2995,-7.9398 22.7994,-30.561 33.6551,-47.9433 18.2911,-24.3456 -7.5185,-18.9153 -16.0119,-25.1766 -31.0397,-2.5375 -36.9313,-15.0497 -53.6663,-23.2611 18.2205,-3.9221 36.737,-7.3102 45.6333,-28.0534 13.4,-13.7077 14.7201,-23.8626 2.9383,-30.1644 7.1929,2.0591 6.9634,-2.8076 23.2413,7.729 13.0501,-3.7947 29.7965,-11.4417 35.3207,-7.3923 9.3504,3.5527 14.1465,-3.5827 17.3064,-14.558 0.889,-12.765 -3.4837,-11.2172 -5.7411,-15.4235 27.7627,-6.5722 45.6389,25.1547 65.2715,50.0779 l -43.8679,-58.7827 -21.7601,-50.9271 -42.2458,-80.1935 z" id="path4185" inkscape:connector-curvature="0" sodipodi:nodetypes="ccccccccccccccccccccccccccccccccccccccccccccccc"/>
  </g>
</svg>