<?xml version="1.0" encoding="UTF-8" standalone="no"?>
<svg
   version="1.1"
   viewBox="0 0 204.72808 200.89"
   id="svg932"
   width="204.72809"
   height="200.89"
   xmlns="http://www.w3.org/2000/svg"
   xmlns:svg="http://www.w3.org/2000/svg"
   xmlns:rdf="http://www.w3.org/1999/02/22-rdf-syntax-ns#"
   xmlns:cc="http://creativecommons.org/ns#"
   xmlns:dc="http://purl.org/dc/elements/1.1/">
  <defs
     id="defs934" />
  <title
     id="title924">Fedora logo (2021)</title>
  <metadata
     id="metadata926">
    <rdf:RDF>
      <cc:Work
         rdf:about="">
        <dc:format>image/svg+xml</dc:format>
        <dc:type
           rdf:resource="http://purl.org/dc/dcmitype/StillImage" />
        <dc:title>Fedora logo (2021)</dc:title>
      </cc:Work>
    </rdf:RDF>
  </metadata>
  <rect
     style="fill:#ffffff;fill-opacity:0.997793;stroke-width:1.00157;stroke-linecap:square;paint-order:stroke markers fill"
     id="rect932"
     width="133.66946"
     height="141.65547"
     x="27.781439"
     y="38.266212" />
  <path
     id="path930"
     style="fill:#51a2da"
     d="M 0.01757813,100.40039 H 0 v 77.71875 h 0.01757813 c 0.02712999,12.58 10.42976587,22.77148 23.25976587,22.77148 h 79.150386 c 56.54,-0.0355 102.30079,-44.96039 102.30079,-100.40039 C 204.7286,45.020233 158.90813,0.08984375 102.39805,0.04492187 45.887969,0 0.11757813,44.93039 0.01757813,100.40039 Z M 123.22852,41.310547 l -0.01,0.03125 c 17.19,0 33.41992,12.910703 33.41992,30.720703 0,1.652 0.01,3.304734 -0.26562,5.177734 -0.4763,4.738 -4.89222,8.14261 -9.69922,7.47461 -4.807,-0.6758 -8.06869,-5.153891 -7.17969,-9.837891 0.0815,-0.5346 0.11133,-1.373406 0.11133,-2.816406 0,-10.1 -8.42563,-14 -16.39063,-14 -7.963,0 -15.14039,6.568 -15.15039,14 0.1376,8.593 0,17.121172 0,25.701172 l 14.78125,-0.109375 c 11.54,-0.2344 11.66972,16.810466 0.13282,16.730466 l -14.91016,0.10742 c -0.0361,6.912 0.0538,5.66354 0.0176,9.14454 0,0 0.12634,8.45337 -0.13086,14.85937 -1.784,18.82 -18.120002,33.85938 -37.750002,33.85938 -20.81,0 -37.951172,-16.67868 -37.951172,-37.13868 0.6248,-21.04 17.73125,-37.590387 39.28125,-37.400387 l 12.019532,-0.08984 v 16.701171 l -12.019532,0.10742 h -0.06445 c -11.84,0.3437 -21.989687,8.23192 -22.179687,20.66992 0,11.33001 9.333921,20.41016 20.919922,20.41016 11.569999,0 20.830078,-8.25762 20.830078,-20.39062 l -0.01758,-63.250004 c 0.006,-1.174 0.04443,-2.10539 0.175781,-3.40039 1.953,-15.47 16.059301,-27.261719 32.029301,-27.261719 z" />
</svg>
