<?xml version="1.0" encoding="iso-8859-1"?>
<!-- Generator: Adobe Illustrator 19.0.0, SVG Export Plug-In . SVG Version: 6.00 Build 0)  -->
<svg version="1.1" id="Layer_1" xmlns="http://www.w3.org/2000/svg" xmlns:xlink="http://www.w3.org/1999/xlink" x="0px" y="0px"
	 viewBox="0 0 512 512" style="enable-background:new 0 0 512 512;" xml:space="preserve">
<path style="fill:#736056;" d="M256,512C114.837,512,0,397.157,0,256S114.837,0,256,0s256,114.843,256,256S397.163,512,256,512z"/>
<path style="fill:#665247;" d="M512,256C512,114.843,397.163,0,256,0v512C397.163,512,512,397.157,512,256z"/>
<g>
	<path style="fill:#88CC2A;" d="M256,133.565c-9.217,0-16.696-7.473-16.696-16.696V83.478c0-9.223,7.479-16.696,16.696-16.696
		s16.696,7.473,16.696,16.696v33.391C272.696,126.092,265.217,133.565,256,133.565z"/>
	<path style="fill:#88CC2A;" d="M116.87,272.696H83.478c-9.217,0-16.696-7.473-16.696-16.696s7.479-16.696,16.696-16.696h33.391
		c9.217,0,16.696,7.473,16.696,16.696S126.087,272.696,116.87,272.696z"/>
	<path style="fill:#88CC2A;" d="M157.619,174.315c-4.272,0-8.544-1.631-11.804-4.892l-23.609-23.609
		c-6.521-6.516-6.521-17.092,0-23.609c6.521-6.521,17.087-6.521,23.609,0l23.609,23.609c6.521,6.516,6.521,17.092,0,23.609
		C166.163,172.684,161.891,174.315,157.619,174.315z"/>
	<path style="fill:#88CC2A;" d="M145.815,342.576l-11.185,11.179C112.358,326.18,100.25,292.044,100.25,256
		c0-41.673,16.185-80.805,45.566-110.185S214.327,100.25,256,100.25s80.805,16.185,110.185,45.566l23.609-23.609
		C354.109,86.516,306.598,66.858,256,66.858s-98.109,19.657-133.793,55.348C86.521,157.891,66.858,205.408,66.858,256
		s19.663,98.109,55.348,133.793c6.521,6.521,17.087,6.521,23.609,0l23.609-23.609c6.521-6.516,6.521-17.092,0-23.609
		C162.902,336.055,152.337,336.055,145.815,342.576z"/>
</g>
<g>
	<path style="fill:#F28618;" d="M411.75,256c0,36.044-12.109,70.18-34.381,97.755l-11.185-11.179
		c-6.521-6.521-17.087-6.521-23.609,0c-6.521,6.516-6.521,17.092,0,23.609l23.609,23.609c3.261,3.261,7.533,4.892,11.804,4.892
		s8.544-1.631,11.804-4.892c35.685-35.685,55.348-83.201,55.348-133.793s-19.663-98.109-55.348-133.793l-23.609,23.609
		C395.566,175.195,411.75,214.327,411.75,256z"/>
	<path style="fill:#F28618;" d="M428.522,272.696H395.13c-9.217,0-16.696-7.473-16.696-16.696s7.479-16.696,16.696-16.696h33.391
		c9.217,0,16.696,7.473,16.696,16.696S437.739,272.696,428.522,272.696z"/>
</g>
<path style="fill:#D7EBFF;" d="M239.304,428.522c-18.413,0-33.391-14.978-33.391-33.391c0-18.413,14.978-33.391,33.391-33.391
	h33.391c18.413,0,33.391,14.978,33.391,33.391c0,18.413-14.978,33.391-33.391,33.391H239.304z"/>
<path style="fill:#BDDEFF;" d="M272.696,361.739H256v66.783h16.696c18.413,0,33.391-14.978,33.391-33.391
	C306.087,376.717,291.109,361.739,272.696,361.739z"/>
<path style="fill:#7FB335;" d="M272.696,116.87V83.478c0-9.223-7.479-16.696-16.696-16.696v66.783
	C265.217,133.565,272.696,126.092,272.696,116.87z"/>
<path style="fill:#E6563A;" d="M389.793,122.207c-6.521-6.521-17.087-6.521-23.609,0l-84.642,84.643
	c-7.686-4.015-16.287-6.501-25.542-6.501c-30.684,0-55.652,24.968-55.652,55.652s24.968,55.652,55.652,55.652
	s55.652-24.968,55.652-55.652c0-9.255-2.487-17.857-6.5-25.543l84.643-84.643C396.315,139.298,396.315,128.722,389.793,122.207z"/>
<path style="fill:#7FB335;" d="M256,66.858v33.391c41.673,0,80.805,16.185,110.185,45.566l23.609-23.609
	C354.109,86.516,306.598,66.858,256,66.858z"/>
<path style="fill:#D9472B;" d="M311.652,256c0-9.255-2.487-17.857-6.5-25.543l84.643-84.643c6.521-6.516,6.521-17.092,0-23.609
	c-6.521-6.521-17.087-6.521-23.609,0l-84.643,84.642c-7.687-4.014-16.288-6.5-25.543-6.5v111.304
	C286.684,311.652,311.652,286.684,311.652,256z"/>
<path style="fill:#EDF0F2;" d="M256,278.261c-12.271,0-22.261-9.984-22.261-22.261s9.99-22.261,22.261-22.261
	s22.261,9.984,22.261,22.261S268.271,278.261,256,278.261z"/>
<path style="fill:#BDDEFF;" d="M278.261,256c0-12.277-9.99-22.261-22.261-22.261v44.522
	C268.271,278.261,278.261,268.277,278.261,256z"/>
<g>
</g>
<g>
</g>
<g>
</g>
<g>
</g>
<g>
</g>
<g>
</g>
<g>
</g>
<g>
</g>
<g>
</g>
<g>
</g>
<g>
</g>
<g>
</g>
<g>
</g>
<g>
</g>
<g>
</g>
</svg>
