<?xml version="1.0" encoding="UTF-8" standalone="no"?>
<!-- Created with Inkscape (http://www.inkscape.org/) -->

<svg
   xmlns:dc="http://purl.org/dc/elements/1.1/"
   xmlns:cc="http://creativecommons.org/ns#"
   xmlns:rdf="http://www.w3.org/1999/02/22-rdf-syntax-ns#"
   xmlns:svg="http://www.w3.org/2000/svg"
   xmlns="http://www.w3.org/2000/svg"
   xmlns:xlink="http://www.w3.org/1999/xlink"
   xmlns:sodipodi="http://sodipodi.sourceforge.net/DTD/sodipodi-0.dtd"
   xmlns:inkscape="http://www.inkscape.org/namespaces/inkscape"
   width="100mm"
   height="44mm"
   viewBox="0 0 354.33071 155.90551"
   id="svg2"
   version="1.1"
   inkscape:version="0.91 r13725"
   sodipodi:docname="fedora-loves-python2.svg">
  <defs
     id="defs4">
    <linearGradient
       inkscape:collect="always"
       xlink:href="#linearGradient4689"
       id="linearGradient1478"
       gradientUnits="userSpaceOnUse"
       gradientTransform="matrix(0.562541,0,0,0.567972,384.12497,231.50832)"
       x1="26.648937"
       y1="20.603781"
       x2="135.66525"
       y2="114.39767" />
    <linearGradient
       id="linearGradient4689">
      <stop
         style="stop-color:#5a9fd4;stop-opacity:1;"
         offset="0"
         id="stop4691" />
      <stop
         style="stop-color:#306998;stop-opacity:1;"
         offset="1"
         id="stop4693" />
    </linearGradient>
    <linearGradient
       inkscape:collect="always"
       xlink:href="#linearGradient4671"
       id="linearGradient1475"
       gradientUnits="userSpaceOnUse"
       gradientTransform="matrix(0.562541,0,0,0.567972,384.12497,231.50832)"
       x1="150.96111"
       y1="192.35176"
       x2="112.03144"
       y2="137.27299" />
    <linearGradient
       id="linearGradient4671">
      <stop
         style="stop-color:#ffd43b;stop-opacity:1;"
         offset="0"
         id="stop4673" />
      <stop
         style="stop-color:#ffe873;stop-opacity:1"
         offset="1"
         id="stop4675" />
    </linearGradient>
  </defs>
  <sodipodi:namedview
     id="base"
     pagecolor="#404040"
     bordercolor="#666666"
     borderopacity="1.0"
     inkscape:pageopacity="0"
     inkscape:pageshadow="2"
     inkscape:zoom="2.28"
     inkscape:cx="240.16248"
     inkscape:cy="106.09003"
     inkscape:document-units="mm"
     inkscape:current-layer="g11879"
     showgrid="false"
     inkscape:window-width="1848"
     inkscape:window-height="1056"
     inkscape:window-x="72"
     inkscape:window-y="0"
     inkscape:window-maximized="1"
     showguides="true"
     inkscape:guide-bbox="true"
     fit-margin-top="5"
     fit-margin-left="5"
     fit-margin-bottom="5"
     fit-margin-right="5" />
  <metadata
     id="metadata7">
    <rdf:RDF>
      <cc:Work
         rdf:about="">
        <dc:format>image/svg+xml</dc:format>
        <dc:type
           rdf:resource="http://purl.org/dc/dcmitype/StillImage" />
        <dc:title />
      </cc:Work>
    </rdf:RDF>
  </metadata>
  <g
     style="display:inline"
     id="g11879"
     inkscape:groupmode="layer"
     inkscape:label="all"
     transform="translate(-120.06159,-210.79887)">
    <path
       style="fill:#ffffff;fill-opacity:1;fill-rule:nonzero;stroke:none"
       d="m 394.05325,228.3155 c -11.40351,0.009 -24.72473,3.79243 -29.9501,14.93768 -1.5289,2.89101 -1.27199,6.72751 -2.43512,9.43897 -2.17823,0.45073 -4.20855,1.39242 -6.32066,2.06018 -8.60516,-18.57285 -32.98188,-28.96012 -51.7985,-19.63424 -2.2532,0.96523 -4.42169,2.22127 -6.49918,3.45564 -17.12739,-12.87686 -44.52986,-6.9127 -55.15002,11.57521 -18.59846,-22.42875 -55.09188,-28.63884 -78.8475,-10.94941 -15.96315,11.88683 -27.09048,22.08531 -26.47013,59.55593 0.20764,12.54235 -1.8503,26.0287 3.55055,37.87061 6.19019,10.14698 18.92801,11.75721 30.55184,11.57604 18.74925,-0.29221 39.66757,2.23051 56.46351,-8.34765 10.351,-6.10294 18.31116,-15.72961 23.5182,-26.46687 12.45395,15.08189 29.50767,25.39497 46.78918,34.06113 17.83138,-7.96434 34.26337,-19.54836 46.62907,-34.76698 4.02615,6.23132 10.62895,11.00513 18.06933,11.99418 1.5128,12.18834 12.52535,21.33391 24.30414,23.08556 15.39489,3.7843 33.9484,0.2704 43.9809,-12.81932 2.09221,-3.05048 2.39686,-7.16039 3.90555,-10.24222 11.72477,-1.5669 20.34359,-12.27056 22.1024,-23.56415 3.9811,-15.43473 0.89617,-33.6967 -11.14765,-44.82498 -3.25305,-2.45686 -7.69522,-3.08723 -11.2523,-4.2111 -1.61196,-13.2793 -14.26112,-23.69092 -27.51097,-23.492 -4.15027,-0.38017 -8.32065,-0.2903 -12.48254,-0.29221 z"
       id="path11883"
       inkscape:connector-curvature="0"
       sodipodi:nodetypes="cccccccsscsccccccccccccc" />
    <g
       style="display:inline"
       id="g12820"
       transform="matrix(0.68317067,0,0,0.68317067,42.239037,72.476528)">
      <g
         id="g11958"
         transform="matrix(0.79019286,0,0,0.79019286,-645.22057,-128.57408)">
        <path
           id="path11960"
           style="fill:#072b61;fill-opacity:1;fill-rule:nonzero;stroke:none"
           d="m 1187.1177,563.24592 c 0,-47.00738 -38.1083,-85.11593 -85.1151,-85.11593 -46.9862,0 -85.078,38.0766 -85.1122,85.05597 l 0,-0.003 0,65.86623 0,0.003 c 0.026,10.66683 8.6764,19.30216 19.3501,19.30216 l 0.093,-0.003 0.01,0.003 65.6982,0 c 46.9918,-0.0176 85.081,-38.11282 85.081,-85.10843"
           inkscape:connector-curvature="0" />
        <path
           sodipodi:nodetypes="sscsssscssscsscsscccssscsssccccccccccccccccccccccccccccc"
           id="path11962"
           style="fill:#0a57a4;fill-opacity:1;fill-rule:nonzero;stroke:none"
           d="m 1127.0577,498.34211 c -22.0631,0 -39.9392,17.87638 -39.9392,39.93915 l 0,21.18231 -21.1823,0 c -22.063,0 -39.9391,17.71623 -39.9391,39.77745 -10e-5,22.06239 17.8761,39.93915 39.9391,39.93915 22.0618,10e-6 39.9392,-17.87676 39.9392,-39.93915 l 0,-21.1823 21.1823,0 c 22.0616,0 39.9391,-17.71507 39.9391,-39.77746 0,-22.06277 -17.8775,-39.93915 -39.9391,-39.93915 z m 0,18.75685 c 11.6458,0 21.1823,9.53508 21.1823,21.1823 0,11.64406 -9.5365,21.18231 -21.1823,21.18231 l -0.1615,0 -17.9483,0 c -1.6468,0 -3.0723,-1.42844 -3.0723,-3.07225 l 0,-18.11006 c 0.021,-11.63222 9.5517,-21.1823 21.1823,-21.1823 z m -61.1215,60.95976 18.1101,0 c 1.644,0 3.0722,1.26596 3.0722,2.91054 l 0,18.27176 c -0.015,11.62835 -9.5502,21.18231 -21.1823,21.18231 -11.6443,0 -21.1823,-9.53825 -21.1823,-21.18231 0,-11.64606 9.538,-21.1823 21.1823,-21.1823 z m 97.3416,49.96436 0,0.97018 1.617,0 0,4.68922 0.9701,0 0,-4.68922 1.617,0 0,-0.97018 z m 5.0126,0 0,5.6594 0.9702,0 0,-3.07225 0,-0.48509 0.1614,0.48509 1.4553,3.23394 1.2936,-3.23394 0.3234,-0.64678 0,0.64678 0,3.07225 0.8084,0 0,-5.6594 -0.9701,0 -1.1319,2.91055 -0.3234,0.80848 -0.3234,-0.80848 -1.2936,-2.91055 -0.9702,0 z"
           inkscape:connector-curvature="0" />
        <path
           id="path11964"
           style="fill:#ffffff;fill-opacity:1;fill-rule:nonzero;stroke:none"
           d="m 1087.0455,559.42502 0,-21.14421 0,-0.0276 c 0,-22.06277 17.8842,-39.94736 39.9473,-39.94736 3.3484,0 5.726,0.37578 8.8263,1.18782 4.5166,1.18356 8.2059,4.88487 8.2087,9.19455 0,5.20819 -3.7791,8.99365 -9.4289,8.99365 -2.6927,0 -3.6646,-0.51517 -7.6076,-0.51517 -11.6306,0 -21.0622,9.41956 -21.0826,21.05178 l 0,18.2268 0,0.003 c 0,1.64381 1.3306,2.97697 2.9774,2.97697 l 0.01,0 13.8448,0 c 5.1602,0 9.3251,4.12844 9.3294,9.30068 0,5.17663 -4.1706,9.29718 -9.3294,9.29718 l -16.8305,0 0,21.23457 0,0.0279 c 0,22.05961 -17.8856,39.94679 -39.9474,39.94679 -3.347,0 -5.726,-0.37768 -8.8235,-1.18751 -4.5182,-1.18194 -8.2102,-4.88622 -8.2115,-9.19435 0,-5.20793 3.7806,-8.99539 9.4302,-8.99539 2.6899,0 3.666,0.51681 7.6048,0.51681 11.632,0 21.0664,-9.42215 21.0855,-21.05321 l 0,-18.32117 c 0,-1.64181 -1.3335,-2.9718 -2.9775,-2.9718 l -0.01,0 -13.8448,-0.003 c -5.1602,0 -9.3292,-4.11661 -9.3292,-9.29162 0,-5.20703 4.2127,-9.30625 9.4287,-9.30625 l 16.7297,0"
           inkscape:connector-curvature="0" />
      </g>
    </g>
    <path
       style="display:inline;fill:#ee2722;fill-opacity:1;fill-rule:nonzero;stroke:none"
       id="path11966"
       d="m 274.8424,245.31527 c 3.99791,-0.26646 7.61325,0.51517 11.22859,2.57583 0.47822,0.26646 2.00852,1.1902 2.41023,1.54549 0.47822,0.44411 3.80662,3.05546 4.457,3.90815 0.32519,0.40858 3.50057,4.24567 3.50057,4.24567 0,0 3.02235,-3.21534 3.55795,-3.76603 0.91818,-0.90598 1.77898,-1.4922 2.44849,-1.9896 1.95113,-1.47444 3.94052,-2.789 6.17859,-4.06803 1.56856,-0.90598 4.26572,-1.74091 5.70038,-1.93631 0.4017,-0.0533 1.47291,-0.19541 1.95113,-0.26647 5.4517,-0.78163 12.51022,1.42115 16.50814,3.73051 4.41875,2.5403 7.46022,6.28857 9.81306,10.97835 0.51648,1.04809 1.70246,3.83709 1.93201,4.5299 1.24337,3.71274 1.5303,8.40253 1.16685,13.03901 -0.55473,7.21232 -3.65359,14.62004 -6.96287,19.09665 -0.66951,0.88821 -2.19981,3.4818 -4.0553,5.72011 -6.1786,7.38995 -15.32215,16.59187 -24.5231,22.41857 -2.58238,1.63432 -12.47196,7.05244 -12.47196,7.05244 0,0 -10.31041,-5.75564 -11.95549,-6.76821 -10.42518,-6.46621 -21.94071,-15.6326 -28.36798,-25.9892 -2.23806,-3.60616 -4.82045,-7.24785 -6.29336,-11.6534 -0.68864,-2.02513 -1.30076,-3.76604 -1.77898,-6.0221 -1.1286,-5.31153 -0.78428,-11.56457 0.72689,-16.52082 0.66951,-2.20277 1.66421,-4.56543 2.62065,-6.44845 3.4623,-6.73268 9.88957,-11.15599 18.34449,-12.87913 1.33902,-0.26646 2.62065,-0.46187 3.86402,-0.53293"
       inkscape:connector-curvature="0" />
    <path
       inkscape:connector-curvature="0"
       d="m 423.62488,327.08993 0.43399,0 0,-2.72184 1.02807,0 0,-0.32444 -2.49012,0 0,0.32444 1.02806,0 0,2.72184 m 1.84687,0 0.37077,0 0,-2.4859 0.80476,2.4856 0.4128,0 0.83858,-2.47717 0,2.47747 0.40448,0 0,-3.04628 -0.5351,0 -0.91642,2.60978 -0.78157,-2.60978 -0.5983,0 0,3.04628"
       style="font-style:normal;font-weight:normal;font-size:15.16445827px;line-height:125%;font-family:'Bitstream Vera Sans';display:inline;fill:#646464;fill-opacity:1;stroke:none;stroke-width:1px;stroke-linecap:butt;stroke-linejoin:miter;stroke-opacity:1"
       id="text3004"
       sodipodi:nodetypes="ccccccccccccccccccccccc" />
    <g
       id="g4179"
       transform="matrix(0.83030068,0,0,0.83030068,20.867661,40.342284)">
      <path
         id="path1948"
         d="m 454.03487,243.21161 c -4.58365,0.0213 -8.96093,0.41222 -12.8125,1.09375 -11.34621,2.0045 -13.40624,6.2001 -13.40625,13.9375 l 0,10.21875 26.8125,0 0,3.40625 -26.8125,0 -10.0625,0 c -7.79245,0 -14.61575,4.68372 -16.74999,13.59375 -2.46182,10.21296 -2.57102,16.58602 0,27.25 1.90592,7.93785 6.45754,13.59375 14.24999,13.59375 l 9.21875,0 0,-12.25 c 0,-8.8499 7.65715,-16.65625 16.75,-16.65625 l 26.78125,0 c 7.45496,0 13.40626,-6.13817 13.40625,-13.625 l 0,-25.53125 c 0,-7.26634 -6.12998,-12.72478 -13.40625,-13.9375 -4.60598,-0.76673 -9.38509,-1.11505 -13.96875,-1.09375 z m -14.5,8.21875 c 2.76955,0 5.03125,2.29864 5.03125,5.125 0,2.81633 -2.2617,5.09375 -5.03125,5.09375 -2.77947,0 -5.03125,-2.27742 -5.03125,-5.09375 0,-2.82635 2.25178,-5.125 5.03125,-5.125 z"
         style="fill:url(#linearGradient1478);fill-opacity:1"
         inkscape:connector-curvature="0" />
      <path
         id="path1950"
         d="m 484.75362,271.86786 0,11.90625 c 0,9.23075 -7.82589,17 -16.75,17 l -26.78125,0 c -7.33583,0 -13.40624,6.27848 -13.40625,13.625 l 0,25.53125 c 0,7.26634 6.31859,11.54032 13.40625,13.625 8.48734,2.49561 16.62624,2.94663 26.78125,0 6.75016,-1.95439 13.40626,-5.88761 13.40625,-13.625 l 0,-10.21875 -26.78125,0 0,-3.40625 26.78125,0 13.40626,0 c 7.79246,0 10.69625,-5.43541 13.40624,-13.59375 2.79933,-8.39889 2.68022,-16.47578 0,-27.25 -1.92578,-7.75744 -5.60387,-13.59375 -13.40624,-13.59375 l -10.06251,0 z m -15.0625,64.65625 c 2.77948,0 5.03125,2.27742 5.03125,5.09375 0,2.82635 -2.25177,5.125 -5.03125,5.125 -2.76955,0 -5.03125,-2.29865 -5.03125,-5.125 10e-6,-2.81633 2.2617,-5.09375 5.03125,-5.09375 z"
         style="fill:url(#linearGradient1475);fill-opacity:1"
         inkscape:connector-curvature="0" />
    </g>
  </g>
</svg>
