<?xml version="1.0" encoding="UTF-8" standalone="no"?>
<!-- Created with Inkscape (http://www.inkscape.org/) -->
<svg xmlns:dc="http://purl.org/dc/elements/1.1/" xmlns:cc="http://creativecommons.org/ns#" xmlns:rdf="http://www.w3.org/1999/02/22-rdf-syntax-ns#" xmlns:svg="http://www.w3.org/2000/svg" xmlns="http://www.w3.org/2000/svg" xmlns:xlink="http://www.w3.org/1999/xlink" xmlns:sodipodi="http://sodipodi.sourceforge.net/DTD/sodipodi-0.dtd" xmlns:inkscape="http://www.inkscape.org/namespaces/inkscape" width="100mm" height="44mm" viewBox="0 0 354.33071 155.90551" id="svg2" version="1.1" inkscape:version="0.91 r13725" sodipodi:docname="fedora-loves-python.svg">
  <defs id="defs4">
    <linearGradient inkscape:collect="always" id="linearGradient11301">
      <stop style="stop-color:#ffe052;stop-opacity:1" offset="0" id="stop11303"/>
      <stop style="stop-color:#ffc331;stop-opacity:1" offset="1" id="stop11305"/>
    </linearGradient>
    <linearGradient inkscape:collect="always" xlink:href="#linearGradient11301" id="linearGradient11307" x1="89.136749" y1="111.92053" x2="147.77737" y2="168.1012" gradientUnits="userSpaceOnUse"/>
    <linearGradient inkscape:collect="always" id="linearGradient9515">
      <stop style="stop-color:#387eb8;stop-opacity:1" offset="0" id="stop9517"/>
      <stop style="stop-color:#366994;stop-opacity:1" offset="1" id="stop9519"/>
    </linearGradient>
    <linearGradient inkscape:collect="always" xlink:href="#linearGradient9515" id="linearGradient9521" x1="55.549179" y1="77.070274" x2="110.14919" y2="131.85291" gradientUnits="userSpaceOnUse"/>
  </defs>
  <sodipodi:namedview id="base" pagecolor="#404040" bordercolor="#666666" borderopacity="1.0" inkscape:pageopacity="0" inkscape:pageshadow="2" inkscape:zoom="1.14" inkscape:cx="252.29933" inkscape:cy="46.216228" inkscape:document-units="mm" inkscape:current-layer="g11879" showgrid="false" inkscape:window-width="1856" inkscape:window-height="1056" inkscape:window-x="64" inkscape:window-y="0" inkscape:window-maximized="1" showguides="true" inkscape:guide-bbox="true" fit-margin-top="5" fit-margin-left="5" fit-margin-bottom="5" fit-margin-right="5"/>
  <metadata id="metadata7">
    <rdf:RDF>
      <cc:Work rdf:about="">
        <dc:format>image/svg+xml</dc:format>
        <dc:type rdf:resource="http://purl.org/dc/dcmitype/StillImage"/>
        <dc:title/>
      </cc:Work>
    </rdf:RDF>
  </metadata>
  <g style="display:inline" id="g11879" inkscape:groupmode="layer" inkscape:label="all" transform="translate(-120.06159,-210.79887)">
    <g id="g11333" transform="matrix(0.68317067,0,0,0.68317067,42.239037,72.476528)">
      <path sodipodi:nodetypes="cccccccsscsccccccccccccc" inkscape:connector-curvature="0" id="path11883" d="m 514.97266,228.11133 c -16.69204,0.0133 -36.19116,5.55122 -43.83985,21.86523 -2.23795,4.23175 -1.8619,9.84748 -3.56445,13.81641 -3.18841,0.65977 -6.16032,2.03818 -9.25195,3.01562 -12.59591,-27.18625 -48.27765,-42.39075 -75.82072,-28.73987 -3.29816,1.41286 -6.47231,3.2514 -9.51327,5.05823 -25.07043,-18.84867 -65.18116,-10.11856 -80.72656,16.94336 -27.22373,-32.83037 -80.64146,-41.92047 -115.41406,-16.02734 -23.36627,17.3995 -39.65404,32.32766 -38.746,87.17578 0.30394,18.35902 -2.7084,38.09984 5.19717,55.43359 9.06097,14.85278 27.70612,17.20977 44.72066,16.94459 27.44446,-0.42773 58.06392,3.26494 82.6492,-12.21899 15.1514,-8.93326 26.80319,-23.02442 34.42506,-38.74122 18.22964,22.07631 43.19224,37.17222 68.48828,49.85742 26.10092,-11.6579 50.15346,-28.61416 68.25391,-50.89062 5.89333,9.12117 15.55827,16.1089 26.44922,17.55664 2.21438,17.84084 18.33415,31.22779 35.5755,33.79179 22.53448,5.53931 49.69242,0.3958 64.37762,-18.76445 3.0625,-4.46518 3.50843,-10.48112 5.7168,-14.99219 17.16228,-2.29357 29.7782,-17.96119 32.35267,-34.49232 5.82739,-22.59279 1.31178,-49.32399 -16.31751,-65.61315 -4.7617,-3.59626 -11.26398,-4.51898 -16.47071,-6.16406 -2.35952,-19.43775 -20.8749,-34.67789 -40.26953,-34.38672 -6.07502,-0.55648 -12.17947,-0.42493 -18.27148,-0.42773 z" style="fill:#ffffff;fill-opacity:1;fill-rule:nonzero;stroke:none"/>
      <g id="g11320">
        <g style="display:inline" id="g12820">
          <g id="g11958" transform="matrix(0.79019286,0,0,0.79019286,-645.22057,-128.57408)">
            <path id="path11960" style="fill:#072b61;fill-opacity:1;fill-rule:nonzero;stroke:none" d="m 1187.1177,563.24592 c 0,-47.00738 -38.1083,-85.11593 -85.1151,-85.11593 -46.9862,0 -85.078,38.0766 -85.1122,85.05597 l 0,-0.003 0,65.86623 0,0.003 c 0.026,10.66683 8.6764,19.30216 19.3501,19.30216 l 0.093,-0.003 0.01,0.003 65.6982,0 c 46.9918,-0.0176 85.081,-38.11282 85.081,-85.10843" inkscape:connector-curvature="0"/>
            <path sodipodi:nodetypes="sscsssscssscsscsscccssscsssccccccccccccccccccccccccccccc" id="path11962" style="fill:#0a57a4;fill-opacity:1;fill-rule:nonzero;stroke:none" d="m 1127.0577,498.34211 c -22.0631,0 -39.9392,17.87638 -39.9392,39.93915 l 0,21.18231 -21.1823,0 c -22.063,0 -39.9391,17.71623 -39.9391,39.77745 -10e-5,22.06239 17.8761,39.93915 39.9391,39.93915 22.0618,10e-6 39.9392,-17.87676 39.9392,-39.93915 l 0,-21.1823 21.1823,0 c 22.0616,0 39.9391,-17.71507 39.9391,-39.77746 0,-22.06277 -17.8775,-39.93915 -39.9391,-39.93915 z m 0,18.75685 c 11.6458,0 21.1823,9.53508 21.1823,21.1823 0,11.64406 -9.5365,21.18231 -21.1823,21.18231 l -0.1615,0 -17.9483,0 c -1.6468,0 -3.0723,-1.42844 -3.0723,-3.07225 l 0,-18.11006 c 0.021,-11.63222 9.5517,-21.1823 21.1823,-21.1823 z m -61.1215,60.95976 18.1101,0 c 1.644,0 3.0722,1.26596 3.0722,2.91054 l 0,18.27176 c -0.015,11.62835 -9.5502,21.18231 -21.1823,21.18231 -11.6443,0 -21.1823,-9.53825 -21.1823,-21.18231 0,-11.64606 9.538,-21.1823 21.1823,-21.1823 z m 97.3416,49.96436 0,0.97018 1.617,0 0,4.68922 0.9701,0 0,-4.68922 1.617,0 0,-0.97018 z m 5.0126,0 0,5.6594 0.9702,0 0,-3.07225 0,-0.48509 0.1614,0.48509 1.4553,3.23394 1.2936,-3.23394 0.3234,-0.64678 0,0.64678 0,3.07225 0.8084,0 0,-5.6594 -0.9701,0 -1.1319,2.91055 -0.3234,0.80848 -0.3234,-0.80848 -1.2936,-2.91055 -0.9702,0 z" inkscape:connector-curvature="0"/>
            <path id="path11964" style="fill:#ffffff;fill-opacity:1;fill-rule:nonzero;stroke:none" d="m 1087.0455,559.42502 0,-21.14421 0,-0.0276 c 0,-22.06277 17.8842,-39.94736 39.9473,-39.94736 3.3484,0 5.726,0.37578 8.8263,1.18782 4.5166,1.18356 8.2059,4.88487 8.2087,9.19455 0,5.20819 -3.7791,8.99365 -9.4289,8.99365 -2.6927,0 -3.6646,-0.51517 -7.6076,-0.51517 -11.6306,0 -21.0622,9.41956 -21.0826,21.05178 l 0,18.2268 0,0.003 c 0,1.64381 1.3306,2.97697 2.9774,2.97697 l 0.01,0 13.8448,0 c 5.1602,0 9.3251,4.12844 9.3294,9.30068 0,5.17663 -4.1706,9.29718 -9.3294,9.29718 l -16.8305,0 0,21.23457 0,0.0279 c 0,22.05961 -17.8856,39.94679 -39.9474,39.94679 -3.347,0 -5.726,-0.37768 -8.8235,-1.18751 -4.5182,-1.18194 -8.2102,-4.88622 -8.2115,-9.19435 0,-5.20793 3.7806,-8.99539 9.4302,-8.99539 2.6899,0 3.666,0.51681 7.6048,0.51681 11.632,0 21.0664,-9.42215 21.0855,-21.05321 l 0,-18.32117 c 0,-1.64181 -1.3335,-2.9718 -2.9775,-2.9718 l -0.01,0 -13.8448,-0.003 c -5.1602,0 -9.3292,-4.11661 -9.3292,-9.29162 0,-5.20703 4.2127,-9.30625 9.4287,-9.30625 l 16.7297,0" inkscape:connector-curvature="0"/>
          </g>
        </g>
        <path style="display:inline;fill:#ee2722;fill-opacity:1;fill-rule:nonzero;stroke:none" id="path11966" d="m 340.47621,252.99497 c 5.852,-0.39004 11.144,0.75408 16.436,3.7704 0.7,0.39004 2.94,1.74218 3.528,2.26224 0.7,0.65007 5.572,4.47247 6.524,5.7206 0.476,0.59807 5.124,6.21466 5.124,6.21466 0,0 4.424,-4.7065 5.208,-5.51258 1.344,-1.32614 2.604,-2.18423 3.584,-2.91231 2.856,-2.15823 5.768,-4.08243 9.044,-5.95463 2.296,-1.32614 6.244,-2.54827 8.344,-2.8343 0.588,-0.078 2.156,-0.28603 2.856,-0.39004 7.98,-1.14412 18.312,2.08022 24.164,5.46058 6.468,3.71839 10.92,9.20497 14.364,16.0697 0.756,1.53416 2.492,5.6166 2.828,6.6307 1.82,5.43458 2.24,12.29931 1.708,19.08603 -0.812,10.55712 -5.348,21.40027 -10.192,27.95296 -0.98,1.30014 -3.22,5.09654 -5.936,8.37289 -9.044,10.81714 -22.428,24.28657 -35.896,32.81548 -3.78,2.39225 -18.256,10.32309 -18.256,10.32309 0,0 -15.092,-8.42489 -17.5,-9.90705 -15.26,-9.465 -32.116,-22.88242 -41.524,-38.04203 -3.276,-5.27856 -7.056,-10.60913 -9.212,-17.05781 -1.008,-2.96432 -1.904,-5.51259 -2.604,-8.81494 -1.652,-7.77482 -1.148,-16.92779 1.064,-24.18256 0.98,-3.22434 2.436,-6.68271 3.836,-9.439 5.068,-9.85505 14.476,-16.32973 26.852,-18.852 1.96,-0.39004 3.836,-0.67607 5.656,-0.78008" inkscape:connector-curvature="0"/>
        <g style="display:inline" id="g11394">
          <path sodipodi:nodetypes="ccccccccccccccccccccccc" id="text3004" style="font-style:normal;font-weight:normal;font-size:15.16445827px;line-height:125%;font-family:'Bitstream Vera Sans';display:inline;fill:#646464;fill-opacity:1;stroke:none;stroke-width:1px;stroke-linecap:butt;stroke-linejoin:miter;stroke-opacity:1" d="m 558.25852,372.6937 0.63525,0 0,-3.98414 1.50486,0 0,-0.47489 -3.64495,0 0,0.47489 1.50484,0 0,3.98414 m 2.70337,0 0.54272,0 0,-3.63877 1.17798,3.63832 0.60424,0 1.22748,-3.62598 0,3.62643 0.59207,0 0,-4.45903 -0.78326,0 -1.34142,3.82009 -1.14404,-3.82009 -0.87577,0 0,4.45903" inkscape:connector-curvature="0"/>
          <g transform="matrix(1.2436959,0,0,1.2436959,396.00798,163.99537)" id="g1894">
            <path id="path8615" d="M 99.75,67.46875 C 71.718268,67.468752 73.46875,79.625 73.46875,79.625 L 73.5,92.21875 l 26.75,0 0,3.78125 -37.375,0 c 0,0 -17.9375,-2.034276 -17.9375,26.25 -2e-6,28.28427 15.65625,27.28125 15.65625,27.28125 l 9.34375,0 0,-13.125 c 0,0 -0.503652,-15.65625 15.40625,-15.65625 15.9099,0 26.53125,0 26.53125,0 0,0 14.90625,0.24096 14.90625,-14.40625 0,-14.647206 0,-24.21875 0,-24.21875 0,-2e-6 2.26318,-14.65625 -27.03125,-14.65625 z M 85,75.9375 c 2.661429,-2e-6 4.8125,2.151071 4.8125,4.8125 2e-6,2.661429 -2.151071,4.8125 -4.8125,4.8125 -2.661429,2e-6 -4.8125,-2.151071 -4.8125,-4.8125 -2e-6,-2.661429 2.151071,-4.8125 4.8125,-4.8125 z" style="color:#000000;display:inline;overflow:visible;visibility:visible;opacity:1;fill:url(#linearGradient9521);fill-opacity:1;fill-rule:nonzero;stroke:none;stroke-width:1;stroke-linecap:butt;stroke-linejoin:miter;stroke-miterlimit:4;stroke-dasharray:none;stroke-dashoffset:0;stroke-opacity:1;marker:none;marker-start:none;marker-mid:none;marker-end:none" inkscape:connector-curvature="0"/>
            <path style="color:#000000;display:inline;overflow:visible;visibility:visible;opacity:1;fill:url(#linearGradient11307);fill-opacity:1;fill-rule:nonzero;stroke:none;stroke-width:1;stroke-linecap:butt;stroke-linejoin:miter;stroke-miterlimit:4;stroke-dasharray:none;stroke-dashoffset:0;stroke-opacity:1;marker:none;marker-start:none;marker-mid:none;marker-end:none" d="m 100.5461,177.31485 c 28.03174,0 26.28125,-12.15625 26.28125,-12.15625 l -0.0312,-12.59375 -26.75,0 0,-3.78125 37.375,0 c 0,0 17.9375,2.03427 17.9375,-26.25001 10e-6,-28.284267 -15.65625,-27.281247 -15.65625,-27.281247 l -9.34375,0 0,13.124997 c 0,0 0.50366,15.65625 -15.40625,15.65625 -15.909902,0 -26.531252,0 -26.531252,0 0,0 -14.90625,-0.24096 -14.90625,14.40626 0,14.6472 0,24.21875 0,24.21875 0,0 -2.26318,14.65625 27.031252,14.65625 z m 14.75,-8.46875 c -2.66143,0 -4.8125,-2.15107 -4.8125,-4.8125 0,-2.66143 2.15107,-4.8125 4.8125,-4.8125 2.66143,0 4.8125,2.15107 4.8125,4.8125 1e-5,2.66143 -2.15107,4.8125 -4.8125,4.8125 z" id="path8620" inkscape:connector-curvature="0"/>
          </g>
        </g>
      </g>
    </g>
  </g>
</svg>